:FULLY-SPECIFIED
:DEGREES
600
root 6.13543 16.4222 -2.63601 -62.0567 -89.4048 80.17
lowerback -7.9488 1.4382 2.19392
upperback -4.55394 1.63945 -1.04857
thorax -0.159425 0.711668 -2.18557
lowerneck -15.1383 -2.4282 1.05543
upperneck 19.1976 -4.10773 1.54427
head 8.49141 -1.75977 -0.144355
rclavicle -1.63003e-014 -1.76421e-015
rhumerus -28.3261 2.11482 -82.8216
rradius 39.0621
rwrist 11.995
rhand -26.222 -5.85797
rfingers 7.12502
rthumb 0.331342 -35.8375
lclavicle -1.63003e-014 -1.76421e-015
lhumerus -44.0239 -2.79684 86.0182
lradius 33.1153
lwrist -8.89377
lhand -36.3234 -1.95907
lfingers 7.12502
lthumb -9.42181 27.8103
rfemur -11.3619 7.32727 26.0364
rtibia 19.2054
rfoot -18.0113 -19.7434
rtoes -18.2868
lfemur -42.1187 -21.275 -13.3428
ltibia 13.7834
lfoot -9.73713 29.3373
ltoes -11.7554
601
root 6.12531 16.4013 -2.62385 -61.2249 -89.5986 79.3008
lowerback -7.98775 1.45907 2.25577
upperback -4.58608 1.66026 -0.976381
thorax -0.170545 0.720604 -2.14375
lowerneck -15.1233 -2.43328 1.08009
upperneck 19.2543 -4.13087 1.57136
head 8.50822 -1.76625 -0.142464
rclavicle -9.54166e-015 7.82715e-015
rhumerus -28.61 1.83016 -82.7621
rradius 39.1171
rwrist 12.6215
rhand -25.8417 -6.04803
rfingers 7.12502
rthumb 0.698632 -36.0266
lclavicle -9.54166e-015 7.82715e-015
lhumerus -43.9301 -2.71051 85.9585
lradius 32.9549
lwrist -9.48319
lhand -36.3835 -1.9201
lfingers 7.12502
lthumb -9.47987 27.8467
rfemur -11.1433 6.79501 26.2193
rtibia 19.9625
rfoot -18.1771 -19.0582
rtoes -19.6003
lfemur -41.3685 -19.2792 -15.1452
ltibia 14.7543
lfoot -9.70165 26.8895
ltoes -12.0874
602
root 6.10962 16.3824 -2.61015 -98.0192 -89.6741 116.018
lowerback -8.0553 1.51483 2.1816
upperback -4.59142 1.73663 -0.93769
thorax -0.137886 0.760515 -2.05461
lowerneck -15.0151 -2.41956 1.11081
upperneck 19.2389 -4.12469 1.59792
head 8.48356 -1.76041 -0.136304
rclavicle 5.1684e-015 5.98839e-015
rhumerus -28.9297 1.69535 -82.7961
rradius 39.1591
rwrist 12.6772
rhand -25.7529 -6.0035
rfingers 7.12502
rthumb 0.784401 -35.9818
lclavicle 5.1684e-015 5.98839e-015
lhumerus -43.8577 -2.70162 85.9892
lradius 33.0135
lwrist -9.24092
lhand -36.3426 -2.03006
lfingers 7.12502
lthumb -9.44036 27.7385
rfemur -10.9127 6.37981 26.2306
rtibia 20.7981
rfoot -18.3151 -18.3235
rtoes -21.3251
lfemur -40.6036 -17.8212 -16.4996
ltibia 15.5256
lfoot -9.87346 24.8737
ltoes -12.1008
603
root 6.09116 16.3736 -2.59406 -128.723 -89.5728 146.67
lowerback -8.14828 1.55334 2.11255
upperback -4.5964 1.78921 -0.940405
thorax -0.0909878 0.787937 -2.01229
lowerneck -15.0539 -2.41667 1.15107
upperneck 19.3137 -4.15079 1.66294
head 8.51694 -1.76241 -0.125584
rclavicle 1.31198e-014 -9.79014e-015
rhumerus -29.2451 1.57468 -82.8974
rradius 39.2083
rwrist 12.5993
rhand -25.7452 -5.98096
rfingers 7.12502
rthumb 0.791821 -35.9592
lclavicle 1.31198e-014 -9.79014e-015
lhumerus -43.7641 -2.7267 85.9674
lradius 33.0455
lwrist -9.22905
lhand -36.3634 -1.9355
lfingers 7.12502
lthumb -9.46048 27.8322
rfemur -10.7237 5.78618 26.1582
rtibia 21.6594
rfoot -18.2943 -17.3972
rtoes -22.5676
lfemur -40.1595 -17.3987 -16.9987
ltibia 16.0946
lfoot -9.29316 23.8968
ltoes -9.33791
604
root 6.07254 16.3795 -2.57332 -135.381 -89.2614 153.289
lowerback -8.17739 1.58537 1.9195
upperback -4.68027 1.84057 -0.990762
thorax -0.163154 0.812989 -1.95218
lowerneck -14.8526 -2.37842 1.18408
upperneck 19.2935 -4.12209 1.73886
head 8.47498 -1.74256 -0.0994305
rclavicle 1.35174e-014 -2.17421e-014
rhumerus -29.6586 1.53355 -83.0179
rradius 39.197
rwrist 12.4762
rhand -25.6971 -5.97303
rfingers 7.12502
rthumb 0.838274 -35.9511
lclavicle 1.35174e-014 -2.17421e-014
lhumerus -43.8491 -2.69082 85.9399
lradius 33.1894
lwrist -9.04827
lhand -36.3287 -1.96912
lfingers 7.12502
lthumb -9.42699 27.8001
rfemur -10.6997 5.25753 25.848
rtibia 22.7331
rfoot -18.1295 -16.3464
rtoes -24.2165
lfemur -40.0186 -18.0786 -16.8132
ltibia 16.3931
lfoot -7.9658 24.5969
ltoes -7.75368
605
root 6.0503 16.3894 -2.55287 -134.235 -88.9081 152.16
lowerback -8.33776 1.56604 1.61948
upperback -4.72405 1.82884 -1.0326
thorax -0.128239 0.81014 -1.82468
lowerneck -14.9123 -2.3492 1.16078
upperneck 19.433 -4.09924 1.79697
head 8.535 -1.72603 -0.0757316
rclavicle 4.77083e-015 8.12532e-015
rhumerus -29.9164 1.34485 -83.1202
rradius 38.9982
rwrist 12.7548
rhand -25.6266 -5.94527
rfingers 7.12502
rthumb 0.90642 -35.9231
lclavicle 4.77083e-015 8.12532e-015
lhumerus -43.8158 -2.53251 85.8862
lradius 33.2263
lwrist -8.96509
lhand -36.5172 -2.0996
lfingers 7.12502
lthumb -9.60888 27.6613
rfemur -10.8785 4.75312 25.4076
rtibia 24.0938
rfoot -17.9883 -15.33
rtoes -25.8824
lfemur -39.9166 -18.8844 -16.596
ltibia 16.5009
lfoot -6.41014 25.5769
ltoes -8.64514
606
root 6.03309 16.3988 -2.53383 -129.711 -88.6014 147.653
lowerback -8.44242 1.52081 1.32611
upperback -4.76794 1.78454 -1.12892
thorax -0.123578 0.7901 -1.76122
lowerneck -14.8482 -2.3102 1.16777
upperneck 19.4498 -4.06788 1.88129
head 8.53105 -1.70346 -0.0444045
rclavicle -1.15295e-014 -9.44227e-016
rhumerus -30.1735 1.15339 -83.2985
rradius 38.806
rwrist 12.8436
rhand -25.6266 -6.06893
rfingers 7.12502
rthumb 0.906367 -36.0467
lclavicle -1.15295e-014 -9.44227e-016
lhumerus -43.6992 -2.50435 85.8058
lradius 33.1951
lwrist -8.96008
lhand -36.5846 -2.07203
lfingers 7.12502
lthumb -9.67389 27.6858
rfemur -11.3683 4.12834 24.926
rtibia 25.917
rfoot -17.7817 -14.2212
rtoes -27.1841
lfemur -39.6638 -19.0074 -16.9126
ltibia 16.5254
lfoot -4.66473 25.8434
ltoes -10.2183
607
root 6.01541 16.4008 -2.51551 -124.044 -88.2646 142.026
lowerback -8.5405 1.42817 0.946659
upperback -4.84372 1.68188 -1.21391
thorax -0.160302 0.741327 -1.64335
lowerneck -14.8508 -2.24915 1.13928
upperneck 19.525 -3.98653 1.9013
head 8.55772 -1.6649 -0.0242967
rclavicle -2.74323e-014 -6.06293e-015
rhumerus -30.4421 0.801912 -83.4555
rradius 38.4586
rwrist 13.0285
rhand -25.8536 -6.0614
rfingers 7.12502
rthumb 0.687188 -36.04
lclavicle -2.74323e-014 -6.06293e-015
lhumerus -43.6133 -2.41608 85.7235
lradius 33.1879
lwrist -8.7343
lhand -36.5782 -1.92263
lfingers 7.12502
lthumb -9.66773 27.8355
rfemur -12.1683 3.21271 24.3438
rtibia 28.2203
rfoot -17.6965 -12.8581
rtoes -28.027
lfemur -39.2297 -18.5961 -17.7849
ltibia 16.7438
lfoot -3.49527 25.5575
ltoes -12.1076
608
root 6.00101 16.3997 -2.4955 -119.377 -88.0458 137.339
lowerback -8.51271 1.33013 0.680793
upperback -4.91295 1.56635 -1.28323
thorax -0.256432 0.684871 -1.5767
lowerneck -14.8125 -2.20821 1.17645
upperneck 19.528 -3.92354 1.83178
head 8.54908 -1.64046 -0.0459417
rclavicle -1.86858e-014 2.09221e-014
rhumerus -30.7749 0.377008 -83.5286
rradius 38.1275
rwrist 13.2187
rhand -25.9337 -5.96539
rfingers 7.12502
rthumb 0.60975 -35.9443
lclavicle -1.86858e-014 2.09221e-014
lhumerus -43.4821 -2.38866 85.6645
lradius 33.0255
lwrist -8.89851
lhand -36.602 -2.04282
lfingers 7.12502
lthumb -9.69063 27.7143
rfemur -13.1582 2.01257 23.8544
rtibia 30.8875
rfoot -17.2131 -11.5205
rtoes -29.2468
lfemur -38.5913 -17.4386 -19.1454
ltibia 17.1422
lfoot -2.88461 24.1045
ltoes -13.876
609
root 5.98911 16.3956 -2.47467 -114.975 -87.9349 132.929
lowerback -8.51674 1.18912 0.505174
upperback -4.95163 1.3881 -1.30883
thorax -0.303594 0.596969 -1.51954
lowerneck -14.7997 -2.13594 1.19153
upperneck 19.4814 -3.80476 1.74652
head 8.52814 -1.59263 -0.0625974
rclavicle -9.14409e-015 -4.47266e-016
rhumerus -31.2078 -0.0379559 -83.5796
rradius 38.0682
rwrist 13.6976
rhand -25.8342 -6.0088
rfingers 7.12502
rthumb 0.705881 -35.9874
lclavicle -9.14409e-015 -4.47266e-016
lhumerus -43.2784 -2.26614 85.5785
lradius 32.9075
lwrist -9.02799
lhand -36.5744 -2.19184
lfingers 7.12502
lthumb -9.66405 27.5665
rfemur -14.3347 0.722463 23.4051
rtibia 33.7938
rfoot -16.5572 -9.80264
rtoes -30.0499
lfemur -38.1349 -16.4279 -20.3009
ltibia 17.724
lfoot -2.35636 22.6715
ltoes -10.2472
